<?xml version="1.0" standalone="no"?>
<!DOCTYPE svg PUBLIC "-//W3C//DTD SVG 20010904//EN"
 "http://www.w3.org/TR/2001/REC-SVG-20010904/DTD/svg10.dtd">
<svg version="1.0" xmlns="http://www.w3.org/2000/svg"
 width="276.000000pt" height="201.000000pt" viewBox="0 0 276.000000 201.000000"
 preserveAspectRatio="xMidYMid meet">
<metadata>
Created by potrace 1.10, written by Peter Selinger 2001-2011
</metadata>
<g transform="translate(0.000000,201.000000) scale(0.100000,-0.100000)"
fill="#000000" stroke="none">
<path d="M0 1019 c0 -845 2 -993 14 -1005 13 -12 205 -14 1344 -14 l1329 0 23
25 c13 14 29 25 37 25 11 0 13 169 13 960 0 953 0 960 -20 960 -13 0 -20 7
-20 20 0 20 -7 20 -1360 20 l-1360 0 0 -991z m800 872 c201 -58 270 -165 270
-415 0 -104 -7 -129 -29 -102 -30 36 -237 85 -284 67 -64 -25 -62 -9 7 65 30
32 52 62 49 67 -7 12 -121 1 -139 -14 -11 -9 -18 -9 -22 -2 -4 6 -27 21 -51
34 -50 25 -75 18 -76 -22 0 -20 -4 -24 -30 -22 -16 1 -47 7 -68 14 -29 10 -40
10 -49 1 -7 -7 -27 -12 -44 -12 -18 0 -45 -5 -61 -11 -15 -7 -43 -15 -62 -18
-61 -11 -33 -24 56 -26 65 -2 98 -8 124 -22 80 -43 100 -89 25 -58 -43 18
-159 20 -178 2 -7 -6 -30 -23 -50 -37 -21 -14 -38 -28 -38 -32 0 -3 -16 -25
-35 -48 -62 -74 -45 -89 45 -38 8 4 26 13 40 18 14 6 36 16 49 23 26 13 184
17 197 5 4 -4 -9 -40 -29 -79 -21 -39 -37 -81 -37 -93 0 -12 -4 -26 -9 -32
-23 -25 -53 -196 -101 -574 -5 -47 -9 -166 -8 -265 l1 -180 -108 -3 c-60 -1
-111 1 -114 7 -3 5 -5 417 -3 915 l2 906 358 -3 c257 -2 370 -6 402 -16z m727
-739 c1 -414 5 -757 8 -762 7 -11 104 -14 129 -4 14 6 16 82 16 759 l0 753 93
7 c50 3 144 5 207 3 l115 -3 2 -753 c1 -414 5 -757 8 -762 7 -11 94 -14 119
-4 15 6 16 78 16 753 0 410 0 752 0 759 0 10 34 12 153 10 l152 -3 2 -754 c1
-415 6 -758 10 -762 4 -4 37 -9 73 -11 l65 -3 3 -123 c1 -73 -2 -130 -8 -142
-11 -20 -22 -20 -810 -20 -502 0 -801 4 -805 10 -4 7 -9 205 -6 268 1 8 20 12
60 12 33 0 67 3 75 6 15 6 16 78 16 753 0 410 0 752 0 759 0 10 34 12 153 10
l152 -3 2 -753z m-557 208 c10 -6 32 -11 47 -13 51 -6 53 -10 53 -136 0 -171
-32 -255 -120 -312 -85 -55 -140 -68 -282 -69 -70 0 -129 -4 -133 -10 -3 -5
-7 -173 -8 -372 l-2 -363 -67 -3 c-72 -3 -82 4 -54 41 11 14 13 88 9 400 -4
347 -3 393 15 502 22 135 38 182 67 207 28 23 37 13 34 -38 -4 -60 8 -70 68
-55 33 9 49 9 51 2 2 -6 12 -21 22 -33 15 -19 22 -21 37 -12 22 14 31 44 32
112 1 52 1 52 34 52 36 0 99 -30 138 -66 14 -13 28 -24 32 -24 18 0 4 41 -27
81 -36 47 -76 72 -145 89 -33 9 -41 14 -30 21 19 12 206 11 229 -1z"/>
</g>
</svg>
