<?xml version="1.0" encoding="UTF-8"?><svg id="a" xmlns="http://www.w3.org/2000/svg" viewBox="0 0 800 600.7" fill="darkgreen"><path d="M294.64,508.32c2.22-.67,3.91-1.16,5.6-1.69,12.74-3.98,22.25-12.54,30.67-22.34,9.53-11.1,13.77-19.2,20.64-36.92,1.04,.46,2.1,.87,3.09,1.39,5.11,2.66,10.48,3.01,15.55,.53,15.31-7.47,23.02-20.55,25.99-36.89-1.41,2.56-2.74,5.16-4.23,7.67-4.92,8.24-10.96,15.5-19.14,20.67-5.98,3.79-12.32,5.59-18.84,1.95,4.04-6.06,8.04-12.07,12.04-18.08l-.94-.66c-3.69,4.45-7.23,9.03-11.1,13.31-13.84,15.32-29.56,27.97-49.67,34.17-7.07,2.18-14.29,3.13-21.68,1.8-1.05-.19-2.21-.29-3.1-.81-1.52-.89-2.87-2.07-4.28-3.13,1.2-1.06,2.31-2.26,3.62-3.16,2.36-1.62,4.84-3.07,7.19-4.81-21.89,3.68-40.83-.82-55.78-19.18,2.19,.3,3.72,.52,5.25,.71,17.38,2.14,33.01-2.67,47.44-12.08,1.7-1.11,2.91-1.15,4.88-.37,4.43,1.74,9.11,2.84,13.83,4.25-.81,.47-1.8,1.21-2.91,1.66-11.62,4.77-23.25,9.49-34.88,14.23-.49,.2-1.09,.23-1.51,.53-.7,.5-1.29,1.15-1.93,1.73,.81,.2,1.66,.67,2.42,.55,10.38-1.6,20.17-5.13,29.76-9.26,23.19-9.99,44.22-23.23,61.6-41.75,9.55-10.18,17.64-21.45,23.66-34.11,.43-.91,.79-1.86,.88-2.98-8.87,14.55-19.36,27.37-35.07,35.34,2.21-4.4,4.3-8.56,6.39-12.72-14.64,11.16-30.1,16.46-49.09,10.04,8.75-3.08,15.72-7.44,21.99-12.92,1.86-1.62,3.59-3.38,5.12-5.52-4.84,1.84-9.65,3.76-14.52,5.5-11.86,4.22-23.89,6.49-36.37,2.83-6.82-2-12.69-5.54-18.16-10.93,25.79-2.98,48.65-11.45,67.43-28.98-3.72-3.08-7.2-5.95-10.68-8.83l.41-.92c15.76,.39,29.44-5.63,42.96-14.06-2.23,7.96-6.11,14.21-10.74,20.04-9.25,11.64-21.74,18.82-34.95,24.86-6.43,2.94-13.17,5.22-19.74,7.88-1.01,.41-1.88,1.2-2.81,1.81l.63,1.26c2.73-.7,5.52-1.22,8.18-2.12,32.85-11.11,61.55-28.72,84.61-54.86,4.52-5.13,8.25-10.95,12.35-16.45l-.82-.64c-3.6,4.37-7,8.92-10.84,13.06-3.95,4.26-8.17,8.32-12.58,12.11-4.39,3.78-9.17,7.11-14.11,10.89,4.53-9.08,8.83-17.69,13.13-26.3l-.89-.6c-17.72,11.59-36.15,18.92-57.42,9.58,15.59-2.5,28.83-9.93,41.2-19.19,12.38-9.26,23.45-19.85,32.83-31.96-6.39,5.13-12.62,10.65-19.37,15.43-9.52,6.75-19.72,12.23-31.39,14.52-12.93,2.53-26.35-3.17-33.2-14.33-.32-.53-.54-1.12-1.08-2.24,18.74,1.29,35.24-3.02,48.38-16.35-4.15-2.66-8.2-5.27-12.26-7.88l.42-.96c10.19,1.93,19.54-.26,28.88-6.16-10.13,20.19-27.54,30.33-46.72,38.38l.56,1.2c1.05-.06,2.15,.06,3.15-.2,14.98-3.86,27.88-11.68,39.87-21.16,8.87-7.01,16.66-15,21.86-25.2,.96-1.88,1.67-3.88,2.15-6.05-6,7.51-11.33,15.54-19.7,21.19,1.41-5.04,2.74-9.82,4.07-14.59-8.53,5.75-17.07,7.78-27.48,4.73,7.42-2.43,12.75-6.25,16.73-12.04-7.48,4.43-15.43,6.66-23.98,4.57-3.41-.83-6.56-2.68-9.76-4.75,26.59,2.07,44.73-11.65,60.51-30l-.66-1.03c-2.12,2.12-4.18,4.3-6.38,6.33-2.26,2.09-4.64,4.05-7.46,6.5,1.18-4.87,2.17-8.97,3.34-13.8-6.63,3.82-12.85,5.01-19.93,3.35,19.65-8.06,31.99-22,37.43-41.54-3.81,2.33-7.52,5.16-11.68,6.98-4.53,1.98-9.23,1.14-14.13-1.77,6.7-2.31,12.62-4.88,15.98-11.18-8.89,6.27-17.74,6.61-27.57-.14,11.24,.02,20.37-3.27,28.2-10.08,8-6.95,11.68-15.83,12.35-26.95-5.06,4.76-10.49,6.89-17.34,7.22,.76-1.05,1.15-1.73,1.67-2.29,8.51-9.09,14.22-19.76,19.04-31.22,2.94-7,1.19-12.48-2.19-18.61-4.59,1.83-9.21,3.67-14.62,5.83,2.51-5.31,4.67-9.88,6.98-14.76-4.27-2.04-8.2-3.91-12.6-6.01,4.71-.78,8.93-1.48,13.64-2.26-2.27-4.24-4.27-7.99-6.68-12.49,4.49,2.76,8.3,5.11,12.64,7.78,2.06-6.05,3.97-11.68,6.09-17.9,2.3,6.19,4.39,11.81,6.61,17.81,4.08-2.53,7.85-4.87,12.24-7.59-2.37,4.44-4.41,8.24-6.73,12.57,4.64,.71,8.62,1.33,13.3,2.05-4.29,2.04-8.14,3.88-12.36,5.89,2.51,4.97,4.95,9.8,7.59,15.03-5.32-2.08-10.25-4.01-15.85-6.2-1.41,4.2-2.76,8.1-3.99,12.04-.16,.5,.28,1.21,.5,1.8,4.95,12.77,11.96,24.29,20.87,34.68,.87,1.01,1.62,2.12,1.97,3.65-6.3-1.2-9.44-6.25-13.2-10.57,4.8,10.25,11.62,18.53,22.84,22.83-9.88,4.21-20.54-.49-25.17-10.67-1.08,8.78,10.88,25.12,18.6,26-3.84-4.39-7.91-9.03-11.99-13.68,.34-.38,.67-.76,1.01-1.14,1.37,1.01,2.81,1.93,4.09,3.04,5.99,5.19,12.29,9.85,20.18,11.67,2.9,.67,5.91,.91,8.85,1.34-2.62,5.67-15.68,9.76-25.72,2.12,1.18,3.53,3.98,5.64,13.48,10.17-7.36,5.42-15.39,2.88-25.79-8.5,3.25,12.61,9.24,23.03,18.23,31.55,8.84,8.37,18.5,15.55,31.38,16.77-7.04,7.34-25.92,5.69-33.18-2.54,4.45,12.51,13.83,20.04,25.64,25.13-6.8-4.83-12.95-10.29-18.02-18.35,9.37,3.62,17.51,8.78,27.38,5.88,.08,.43,.16,.86,.24,1.29-2.95,1.53-5.89,3.06-9.1,4.73,3.29,3.72,7.76,5.73,12.56,6.56,4.81,.82,9.76,.78,15.03,1.14-4.15,5.88-9.92,8.86-16.72,8.39-6.3-.43-12.51-2.31-18.43-3.48,5.2,5.87,12.07,10.54,19.56,14.55-5.23,5.02-16.51,3.35-30.53-4.52,2.03,4.94,3.76,9.15,5.4,13.13-5.96-1.4-16.1-11.16-27.05-26.35,1.41,13.66,37.89,44.85,55.17,46.71-10.59-5.8-20.38-12.48-26.6-24.13,8.41,3.65,16.64,4.73,25.16,3.19,.12,.31,.24,.62,.36,.93-3.52,1.79-7.05,3.58-10.63,5.4,12.64,11.01,27.75,14.64,44.44,13.09-4.1,9.15-16.09,14.8-33.09,12.38,13.9,10.41,28.72,14.51,45.18,13.66-7.62,6.99-16.58,10.18-26.81,10.32-10.14,.14-19.48-2.65-28.55-7.07,6.65,9.86,15.84,16.35,26.99,20.39-12.57,7.77-35.11,1.66-54.78-14.41,.89,3.7,1.77,7.39,2.64,11.02-2.52-1.15-6.2-5.25-10.69-12.52-2.92-4.73-5.52-9.67-8.18-14.37,4.79,28.63,61.46,79.53,90.19,79.8-.98-.64-1.89-1.45-2.95-1.88-20.54-8.39-38.31-20.85-53.62-36.81-2.88-3-5.09-6.64-7.49-10.07-.7-1-1-2.29-1.01-3.88,1.51,1.05,2.93,2.27,4.55,3.11,4.55,2.35,9.19,4.53,13.78,6.8,2.38,1.17,4.89,2.16,7.07,3.63,8.76,5.93,18.25,9.56,28.92,9.77,.54,.01,1.08,.03,1.61,.09,.18,.02,.35,.17,1.45,.73l-10.3,8.63c14.15,11.02,30.79,16.9,50.27,17.9-2.04,2.34-3.43,4.32-5.19,5.89-7.1,6.32-15.71,8.36-24.9,7.74-5.55-.38-11.04-1.61-16.56-2.46-.89-.14-1.78-.28-2.76-.12,5.65,6.14,12.71,9.69,21.39,11.94-5.06,2.76-9.89,3.78-14.87,3.95-27.26,.89-47.96-11.19-63.89-32.57-.67-.9-1.34-1.81-2.35-2.43,12.59,24.06,30.37,43.61,52.73,58.91,15.75,10.77,33.09,18.06,51.74,21.96,.22-.44,.44-.88,.65-1.32-1.18-.61-2.33-1.29-3.54-1.8-6.31-2.67-12.65-5.27-18.96-7.95-1.04-.44-1.95-1.19-2.61-1.6,5.16-1.4,10.36-2.88,15.6-4.17,.85-.21,2.08,.1,2.83,.62,7.32,5.05,15.29,8.47,24.2,8.95,4.75,.26,9.56-.49,14.42-.79-6.91,9.1-15.96,14.9-27.26,17.3-11.37,2.41-21.63-1.03-31.61-6.16l-.37,.72c1.46,1.25,2.87,2.58,4.4,3.75,1.53,1.18,3.16,2.25,4.79,3.29,1.71,1.1,3.48,2.1,5.31,3.2-25.31,12.1-63.91,2.12-82.12-36.33-1.7,1.55-3.22,3.86-5.27,4.51-1.97,.62-4.59-.18-6.73-.91-1.77-.6-3.36-1.9-4.88-3.08-6.07-4.77-10.28-10.94-13.31-17.98-.25-.59-.46-1.2-.73-1.79-.07-.16-.27-.26-1.22-1.12,.72,3.54,.93,6.39,1.88,8.96,4.42,12.02,12.16,20.77,25.1,23.65,2.63,.58,5.62-.43,8.46-.71,3.35,4.47,6.76,9.55,10.73,14.15,5.1,5.91,11.26,10.64,18.18,14.33,.88,.47,1.81,1.24,2.22,2.1,7.48,15.8,20.28,25.26,36.4,30.84,.49,.17,.97,.37,1.54,.6-8.64,5.92-28.31,7.69-42.09,.71-11.24-5.7-18.34-13.95-27.25-32.57-.69,3.26-.13,7.94,2.5,13.43,1.98,4.14,4.49,8.09,7.21,11.79,2.78,3.78,6.1,7.15,8.65,10.08-8.17-.67-15.89-5.09-22.8-11.09-13.31-11.57-20.73-26.67-25.63-43.25-.19-.65-.51-1.27-.73-1.84,0,12.18-.12,24.33,.04,36.47,.11,8.33,1.7,16.45,4.34,24.37,5.83,17.53,17.87,27.3,36.19,29.56,3.92,.48,7.82,1.42,11.59,2.6,2.97,.93,5.61,2.66,6.52,6.34-1.15,.06-2.09,.15-3.02,.15-14.89,0-29.78-.04-44.67-.01-1.32,0-3.13-.81-3.52,1.63-.05,.31-1.5,.57-2.3,.57-11.11-.02-22.23-.05-33.34-.22-1-.01-1.94-1.06-2.98-1.42-.96-.34-2.02-.55-3.03-.55-14.46-.03-28.92,0-43.38,0-1.26,0-2.52,0-4.1,0,.95-3.68,3.36-5.55,6.24-6.39,4.62-1.35,9.36-2.41,14.12-3.16,20.2-3.17,30.74-16.04,34.7-35.01,1.6-7.65,2.19-15.57,2.54-23.39,.42-9.37,.11-18.77,.1-28.16,0-1.13-.15-2.27-.91-3.51-1.41,3.17-2.77,6.36-4.23,9.51-6.12,13.16-14.13,24.89-25.74,33.89-7.77,6.02-18.45,9.64-26.57,8.68,11.67-7.12,19.89-16.38,22.42-29.82-7.69,14.04-18.64,24.3-33.95,29.52-8.9,3.04-18.58,3.49-27.49,1.2Z"/><path d="M340.41,457.92c-18.99,45.52-68.84,57.9-96.59,39.6,11.25-1.68,21.79-4.99,30.61-12.02,4.34-3.46,8.45-4.85,14.1-4.6,13.75,.6,25.72-5.27,37.05-12.34,5.08-3.17,9.76-6.97,14.83-10.65Z"/><path d="M487.22,480.38c8.1,1.77,16.11,2.75,24.17,1.32,4.74-.84,9.39-2.19,14.11-3.17,.97-.2,2.4-.16,3.05,.42,11.53,10.23,25.24,14.8,40.38,15.83-5.91,5.2-22.49,9.82-37.58,8.93-14.66-.86-36.02-12.01-44.12-23.33Z"/><path d="M537.85,430.86c-26.21,14.84-53.43,2.64-70.19-18.93,4.94,1.26,10.38,2.65,15.83,4.04,.31,.08,.65,.24,.94,.19,6.22-1.2,10.77,2.43,15.69,5.21,10.37,5.87,21.48,9.2,33.48,9.27,1.17,0,2.35,.11,4.25,.21Z"/><path d="M278.42,420.29c10.79-1.08,20.85-4,29.8-9.86,4.7-3.08,9.14-5.5,15.2-5.43,4.58,.05,9.19-2.37,13.62-3.64-8.49,19.89-42.65,31.19-58.62,18.93Z"/><path d="M336.08,307.73c-16.05,15.14-42.76,16.6-50.57,3.3,5.11-.35,10.59-.24,15.84-1.27,3.56-.7,6.8-3.01,10.21-4.54,.82-.37,1.85-.91,2.61-.71,3.61,.95,7.09,2.56,10.74,3.11,3.63,.55,7.41,.12,11.17,.12Z"/><path d="M374.32,189.54c-2.9-1.13-5.53-2.17-8.7-3.41,7.03-1.18,13.3-2.23,19.69-3.3-6.14,9.7-12.1,19.83-25.17,22.15-6.52,1.16-13.7-1.57-16.56-6.67,11.36,.7,21.88-1.07,30.74-8.77Z"/><path d="M467.73,198.17c-3.11,5.23-10.59,8.03-16.85,6.87-7.2-1.33-12.01-6.07-16.3-11.36-2.9-3.57-5.22-7.59-7.74-11.32,6.26,1.3,12.34,2.56,19.27,3.99-3.09,1.14-5.67,2.1-8.48,3.14,8.42,7.97,18.91,9.28,30.1,8.67Z"/><path d="M370.31,145.1c9.46-.45,17.29-4.06,24.25-10.18,.25,4.8-6.95,13.9-12.18,15.17-4.59,1.11-9.11-.6-12.07-4.99Z"/><path d="M372.22,220.25c-4.06,9.38-12.36,10.72-21.47,5.49,6.93-1.77,14.35-3.67,21.47-5.49Z"/></svg>